HIERARCHY
ROOT pelvis
{
  OFFSET 0 100 0
  CHANNELS 6 Xposition Yposition Zposition Zrotation Xrotation Yrotation
  JOINT pelvis_right_femur
  {
    OFFSET -10.78128 -3.44521 -0.5502486
    CHANNELS 3 Zrotation Xrotation Yrotation
    JOINT right_femur_tibia
    {
      OFFSET -0.8047443 -44.0398 -0.1307829
      CHANNELS 3 Zrotation Xrotation Yrotation
      JOINT right_tibia_foot
      {
        OFFSET 3.006224 -47.83518 -5
        CHANNELS 3 Zrotation Xrotation Yrotation
        End Site
        {
          OFFSET 0 -5 15
        }
      }
    }
  }
  JOINT pelvis_left_femur
  {
    OFFSET 10.78128 -3.44521 -0.5502486
    CHANNELS 3 Zrotation Xrotation Yrotation
    JOINT left_femur_tibia
    {
      OFFSET 0.8047443 -44.0398 -0.1307829
      CHANNELS 3 Zrotation Xrotation Yrotation
      JOINT left_tibia_foot
      {
        OFFSET -4.370144 -48.10324 -4.275266
        CHANNELS 3 Zrotation Xrotation Yrotation
        End Site
        {
          OFFSET 0 -5 15
        }
      }
    }
  }
  JOINT pelvis_spine1
  {
    OFFSET 0 6.468898 -3.129235
    CHANNELS 3 Zrotation Xrotation Yrotation
    JOINT spine1
    {
      OFFSET 0 23.15396 4.99043
      CHANNELS 3 Zrotation Xrotation Yrotation
      JOINT spine2
      {
        OFFSET 0 20.79997 -5.064912
        CHANNELS 3 Zrotation Xrotation Yrotation
        JOINT neck
        {
          OFFSET 0 14.38658 9.616178
          CHANNELS 3 Zrotation Xrotation Yrotation
          End Site
          {
            OFFSET 0 20 0
          }
        }
      }
      JOINT right_manubrium
      {
        OFFSET -5.722621 16.35077 3.967754
        CHANNELS 3 Zrotation Xrotation Yrotation
        JOINT right_clavicle
        {
          OFFSET -13.16364 1.694482 -4.693211
          CHANNELS 3 Zrotation Xrotation Yrotation
          JOINT right_humerus
          {
            OFFSET -28.5034 -0.3100689 -2.792744
            CHANNELS 3 Zrotation Xrotation Yrotation
            JOINT right_radius
            {
              OFFSET -25.15693 0.02248979 -1.271978
              CHANNELS 3 Zrotation Xrotation Yrotation
              End Site
              {
                OFFSET -15 0 0
              }
            }
          }
        }
      }
      JOINT left_manubrium
      {
        OFFSET 5.722621 16.35077 3.967754
        CHANNELS 3 Zrotation Xrotation Yrotation
        JOINT left_clavicle
        {
          OFFSET 13.16364 1.694482 -4.693211
          CHANNELS 3 Zrotation Xrotation Yrotation
          JOINT left_humerus
          {
            OFFSET 29.39168 -1.063119 -2.237045
            CHANNELS 3 Zrotation Xrotation Yrotation
            JOINT left_radius
            {
              OFFSET 24.59957 -0.9528479 0.9047498
              CHANNELS 3 Zrotation Xrotation Yrotation
              End Site
              {
                OFFSET 15 -0 -0
              }
            }
          }
        }
      }
    }
  }
}
MOTION
Frames: 7
Frame Time: 0.0416666666667
0 103.5113 0 1.444603 -4.109181 0.01030105 1.30843 -11.1905 6.146306 -0 40.07629 -0 -6.560487 -16.40872 -3.658292 -6.604278 12.56822 -23.01494 -0 5.608008 -0 2.763308 -17.29419 23.82265 -1.337958 -2.663152 3.760652 0.5154419 6.70446 -7.564613 1.493088 22.30129 9.131966 5.312751 -23.5056 10.32541 6.558416 -18.07724 9.298996 88.60408 35.45221 -25.03072 -0 0 16.43488 -6.121677 8.957762 1.232302 8.242313 -21.10301 -1.693558 -101.0859 42.78731 27.5538 0 0 -24.63305 -7.266536 17.70795 26.98477
0.2181859 103.6889 1.341685 0.2403236 -3.086446 -0.2367626 3.123767 -14.68339 8.470749 -0 42.32291 -0 -6.450795 -15.41016 -4.762034 -5.698958 11.62886 -22.59307 -0 6.086275 -0 2.044437 -18.21266 23.90781 -1.227088 -2.608519 3.855916 0.4563978 6.762813 -7.546523 1.453282 22.26391 9.150813 5.349971 -23.38344 10.23473 6.516442 -18.03939 9.333909 88.64792 35.61286 -24.98072 -0 0 16.3087 -6.416609 9.160493 1.376539 8.288308 -21.25475 -1.67714 -100.7655 42.41437 27.34901 0 0 -24.78839 -7.022045 17.7451 26.68301
0.4321341 103.5303 3.283339 0.2658425 -1.35069 -0.2184621 3.386754 -20.21997 7.342813 -0 35.28635 -0 -5.965888 -12.91005 -4.583461 -5.882053 12.21358 -20.63445 -0 5.293359 -0 3.170862 -19.68862 22.49222 -1.186572 -2.166046 3.892639 0.7929629 6.987539 -7.523065 1.347451 22.31934 8.765551 5.036002 -23.53272 9.783388 6.404744 -17.76481 9.832579 88.21448 35.97185 -23.96256 -0 0 15.43862 -7.280752 9.573345 2.534247 7.541267 -20.99903 -1.775643 -99.19957 40.69813 26.18015 0 0 -24.18616 -6.232659 17.65455 25.07191
0.6466494 103.18 5.507734 0.08460898 -0.1268419 -0.1250332 4.007791 -23.8137 7.354504 -0 31.79382 -0 -5.602097 -11.75774 -4.588259 -5.875157 12.48096 -20.00025 -0 5.170912 -0 3.640509 -20.78747 22.01847 -1.235324 -1.941158 3.896011 1.023779 7.129483 -7.519181 1.291113 22.34109 8.533076 4.846106 -23.64904 9.532873 6.391399 -17.63248 10.13227 87.86335 36.09288 -23.30801 -0 0 15.01559 -7.69373 9.704411 3.193267 7.089478 -20.7832 -1.831433 -98.3761 39.63758 25.55999 0 0 -23.61746 -5.698668 17.54144 24.02275
0.859742 102.6996 7.950305 -0.1154841 0.8803985 0.03105295 4.647846 -26.65649 7.413941 -0 29.07957 -0 -5.415596 -10.77058 -4.427398 -5.839573 12.72052 -19.77074 -0 5.296432 -0 3.838242 -21.73576 21.69626 -1.33047 -1.689074 3.847162 1.317777 7.2604 -7.529981 1.238383 22.3872 8.257076 4.614791 -23.81472 9.258716 6.376925 -17.47909 10.45512 87.46765 36.14685 -22.61097 -0 0 14.5308 -8.109476 9.784383 3.917162 6.542975 -20.48867 -1.924014 -97.55197 38.62937 24.9034 0 0 -22.98398 -5.297564 17.33021 23.07932
1.068307 102.1195 10.62297 -0.378735 1.783096 0.2532478 5.307386 -29.30136 7.304584 -0 26.55918 -0 -5.421881 -9.570697 -4.088232 -5.732978 13.00845 -19.65417 -0 5.670831 -0 3.574641 -22.69694 21.16748 -1.442193 -1.482622 3.803051 1.590885 7.393654 -7.54885 1.186819 22.40878 8.019814 4.417076 -23.95257 9.012663 6.394167 -17.35299 10.74728 87.07653 36.14886 -21.97562 -0 0 14.13209 -8.46304 9.8171 4.561998 6.06781 -20.21969 -2.006091 -96.82468 37.63795 24.31762 0 0 -22.33055 -4.857383 17.09198 22.13328
1.266741 101.4657 13.54173 -0.6976949 2.557474 0.5470367 5.923115 -31.68117 6.953294 -0 24.18382 -0 -5.634562 -8.213074 -3.584166 -5.552727 13.36451 -19.61248 -0 6.317253 -0 2.774158 -23.62014 20.33188 -1.561599 -1.285284 3.74774 1.862882 7.522537 -7.576626 1.134049 22.42469 7.795591 4.23023 -24.07462 8.768101 6.415365 -17.2283 11.02397 86.702 36.11518 -21.38503 -0 0 13.73896 -8.821144 9.834994 5.191424 5.610377 -19.96184 -2.099162 -96.13026 36.6873 23.74172 0 0 -21.7108 -4.467813 16.80192 21.26431
